<?xml version="1.0" encoding="UTF-8" standalone="no"?>
<!-- Created with Inkscape (http://www.inkscape.org/) -->

<svg
   width="210mm"
   height="297mm"
   viewBox="0 0 210 297"
   version="1.1"
   id="svg5"
   inkscape:version="1.1.2 (0a00cf5339, 2022-02-04)"
   sodipodi:docname="rysunek.svg"
   xmlns:inkscape="http://www.inkscape.org/namespaces/inkscape"
   xmlns:sodipodi="http://sodipodi.sourceforge.net/DTD/sodipodi-0.dtd"
   xmlns="http://www.w3.org/2000/svg"
   xmlns:svg="http://www.w3.org/2000/svg">
  <sodipodi:namedview
     id="namedview7"
     pagecolor="#ffffff"
     bordercolor="#666666"
     borderopacity="1.0"
     inkscape:pageshadow="2"
     inkscape:pageopacity="0.0"
     inkscape:pagecheckerboard="0"
     inkscape:document-units="mm"
     showgrid="false"
     inkscape:zoom="0.73940797"
     inkscape:cx="396.26297"
     inkscape:cy="666.74964"
     inkscape:window-width="1920"
     inkscape:window-height="1012"
     inkscape:window-x="0"
     inkscape:window-y="0"
     inkscape:window-maximized="1"
     inkscape:current-layer="layer1" />
  <defs
     id="defs2">
    <inkscape:path-effect
       effect="spiro"
       id="path-effect8445"
       is_visible="true"
       lpeversion="1" />
    <inkscape:path-effect
       effect="spiro"
       id="path-effect8441"
       is_visible="true"
       lpeversion="1" />
    <inkscape:path-effect
       effect="spiro"
       id="path-effect8437"
       is_visible="true"
       lpeversion="1" />
  </defs>
  <g
     inkscape:label="Warstwa 1"
     inkscape:groupmode="layer"
     id="layer1">
    <g
       id="g9380"
       transform="translate(4.6915784,-21.65004)">
      <g
         id="g8161"
         transform="translate(7.2372607,124.27442)">
        <rect
           style="fill:#4d4d4d;stroke-width:1.12859"
           id="rect1489-6"
           width="30.824558"
           height="19.767584"
           x="98.169441"
           y="59.209087"
           ry="9.8837919"
           transform="rotate(7.7655178)" />
        <rect
           style="fill:#4d4d4d;stroke-width:1.12859"
           id="rect1489-6-7"
           width="30.824558"
           height="19.767584"
           x="26.978985"
           y="-9.6346331"
           ry="9.8837919"
           transform="rotate(19.24474)" />
        <rect
           style="fill:#4d4d4d;stroke-width:1.12859"
           id="rect1489-6-7-5"
           width="30.824558"
           height="19.767584"
           x="26.978985"
           y="10.132953"
           ry="9.8837919"
           transform="rotate(19.24474)" />
        <rect
           style="fill:#1a1a1a;stroke-width:4.99999"
           id="rect1489"
           width="136.56247"
           height="87.576607"
           x="32.148651"
           y="-18.287676"
           ry="43.788303"
           transform="rotate(7.7655178)" />
        <path
           style="fill:#666666;stroke-width:18.8976"
           id="path7346"
           sodipodi:type="arc"
           sodipodi:cx="131.14799"
           sodipodi:cy="66.779686"
           sodipodi:rx="10.484366"
           sodipodi:ry="6.6817474"
           sodipodi:start="0"
           sodipodi:end="6.1978702"
           sodipodi:open="true"
           sodipodi:arc-type="arc"
           transform="rotate(-13.075391)"
           d="m 141.63236,66.779686 a 10.484366,6.6817474 0 0 1 -10.26076,6.680228 10.484366,6.6817474 0 0 1 -10.69843,-6.395287 10.484366,6.6817474 0 0 1 9.80443,-6.953015 10.484366,6.6817474 0 0 1 11.11663,6.098711" />
        <path
           style="fill:#ffffff;stroke-width:18.8976"
           id="path7596"
           sodipodi:type="arc"
           sodipodi:cx="131.51097"
           sodipodi:cy="26.646017"
           sodipodi:rx="1.3772105"
           sodipodi:ry="1.3772105"
           sodipodi:start="0"
           sodipodi:end="6.1978736"
           sodipodi:open="true"
           sodipodi:arc-type="arc"
           d="m 132.88818,26.646017 a 1.3772105,1.3772105 0 0 1 -1.34784,1.376897 1.3772105,1.3772105 0 0 1 -1.40533,-1.318169 1.3772105,1.3772105 0 0 1 1.2879,-1.43312 1.3772105,1.3772105 0 0 1 1.46026,1.257042" />
        <path
           style="fill:#ffffff;stroke-width:18.8976"
           id="path7596-3"
           sodipodi:type="arc"
           sodipodi:cx="143.00017"
           sodipodi:cy="23.518606"
           sodipodi:rx="1.3772105"
           sodipodi:ry="1.3772105"
           sodipodi:start="0"
           sodipodi:end="6.1978736"
           sodipodi:open="true"
           sodipodi:arc-type="arc"
           d="m 144.37738,23.518606 a 1.3772105,1.3772105 0 0 1 -1.34784,1.376897 1.3772105,1.3772105 0 0 1 -1.40533,-1.318169 1.3772105,1.3772105 0 0 1 1.2879,-1.43312 1.3772105,1.3772105 0 0 1 1.46026,1.257042" />
        <path
           style="fill:#333333;stroke-width:18.8976"
           id="path7745"
           sodipodi:type="arc"
           sodipodi:cx="133.20973"
           sodipodi:cy="60.569569"
           sodipodi:rx="2.8109326"
           sodipodi:ry="1.4706979"
           sodipodi:start="0"
           sodipodi:end="6.1978736"
           sodipodi:open="true"
           sodipodi:arc-type="arc"
           transform="rotate(-11.377206)"
           d="m 136.02066,60.569569 a 2.8109326,1.4706979 0 0 1 -2.75098,1.470363 2.8109326,1.4706979 0 0 1 -2.86832,-1.407649 2.8109326,1.4706979 0 0 1 2.62864,-1.530403 2.8109326,1.4706979 0 0 1 2.98044,1.342373" />
      </g>
      <g
         id="g9364"
         transform="matrix(1.6689146,0,0,1.3113734,-103.00642,24.260281)">
        <rect
           style="fill:#4d4d4d;stroke-width:6.81087"
           id="rect8974"
           width="32.484337"
           height="19.071625"
           x="102.2326"
           y="102.70906"
           ry="6.9343376"
           transform="matrix(0.97078513,-0.23995048,0.27086949,0.96261608,0,0)" />
        <rect
           style="fill:#4d4d4d;stroke-width:3.17861"
           id="rect8974-5"
           width="18.692513"
           height="7.2187834"
           x="-156.76424"
           y="120.88869"
           ry="2.6247098"
           transform="matrix(-0.15345658,-0.98815539,0.90034915,-0.43516826,0,0)" />
        <path
           sodipodi:type="star"
           style="fill:#ff0000;stroke-width:18.8976"
           id="path9224"
           inkscape:flatsided="false"
           sodipodi:sides="5"
           sodipodi:cx="483.85928"
           sodipodi:cy="458.2077"
           sodipodi:r1="23.545235"
           sodipodi:r2="6.6186833"
           sodipodi:arg1="0.78539816"
           sodipodi:arg2="1.4137167"
           inkscape:rounded="0"
           inkscape:randomized="0"
           d="m 500.50828,474.8567 -15.61361,-10.1118 -11.7247,14.44176 4.79202,-17.97414 -17.35806,-6.6881 18.57524,-0.99683 0.99683,-18.57524 6.6881,17.35806 17.97414,-4.79202 -14.44176,11.7247 z"
           transform="matrix(0.2583337,-0.05716675,0.05716675,0.2583337,-5.408076,-10.39972)"
           inkscape:transform-center-x="0.48272082"
           inkscape:transform-center-y="0.11677959" />
        <rect
           style="fill:#4d4d4d;stroke-width:3.16816"
           id="rect8974-5-6"
           width="18.689056"
           height="7.1727047"
           x="-161.68202"
           y="148.35925"
           ry="2.6079557"
           transform="matrix(-0.15227545,-0.98833809,0.89899258,-0.43796386,0,0)" />
      </g>
    </g>
  </g>
</svg>
