<?xml version="1.0" encoding="UTF-8" standalone="no"?>
<!-- Created with Inkscape (http://www.inkscape.org/) -->

<svg
   width="210mm"
   height="297mm"
   viewBox="0 0 210 297"
   version="1.1"
   id="svg2429"
   inkscape:version="1.3.2 (091e20e, 2023-11-25, custom)"
   sodipodi:docname="library.svg"
   xmlns:inkscape="http://www.inkscape.org/namespaces/inkscape"
   xmlns:sodipodi="http://sodipodi.sourceforge.net/DTD/sodipodi-0.dtd"
   xmlns="http://www.w3.org/2000/svg"
   xmlns:svg="http://www.w3.org/2000/svg">
  <sodipodi:namedview
     id="namedview2431"
     pagecolor="#ffffff"
     bordercolor="#666666"
     borderopacity="1.0"
     inkscape:pageshadow="2"
     inkscape:pageopacity="0.0"
     inkscape:pagecheckerboard="0"
     inkscape:document-units="mm"
     showgrid="false"
     inkscape:zoom="0.73940797"
     inkscape:cx="394.91054"
     inkscape:cy="560.58362"
     inkscape:window-width="1920"
     inkscape:window-height="1009"
     inkscape:window-x="1912"
     inkscape:window-y="-8"
     inkscape:window-maximized="1"
     inkscape:current-layer="layer1"
     inkscape:showpageshadow="2"
     inkscape:deskcolor="#d1d1d1" />
  <defs
     id="defs2426" />
  <g
     inkscape:label="Warstwa 1"
     inkscape:groupmode="layer"
     id="layer1">
    <rect
       style="fill:#999999;stroke:#000000;stroke-width:5.75528"
       id="rect2477"
       width="173.33411"
       height="35.443161"
       x="16.562836"
       y="88.999878"
       ry="3.0168898" />
    <rect
       style="fill:#cccccc;stroke:#000000;stroke-width:5.75321"
       id="rect2647"
       width="173.53236"
       height="34.702091"
       x="16.562836"
       y="124.44304"
       ry="3.0168891" />
    <rect
       style="fill:#666666;stroke:#000000;stroke-width:5.74992"
       id="rect2769"
       width="173.53236"
       height="34.570641"
       x="16.562836"
       y="159.14514"
       ry="3.0168898" />
    <path
       style="fill:#0000ff;stroke:#000000;stroke-width:4.04793"
       d="m 136.2111,139.42592 v -13.2806 h 17.77885 17.77886 v 13.2806 13.28059 l -4.87313,-0.008 -4.87311,-0.008 -4.05488,-7.06039 c -2.23019,-3.88322 -4.11218,-7.06039 -4.18221,-7.06039 -0.07,0 -1.9564,3.17921 -4.19194,7.06489 l -4.06461,7.06489 -4.65892,0.003 -4.65891,0.003 z"
       id="path3147" />
    <path
       style="fill:#ff0000;stroke:#000000;stroke-width:4.04793"
       d="M 136.07698,103.81152 V 90.530919 h 17.77885 17.77887 v 13.280601 13.28058 l -4.87313,-0.008 -4.87311,-0.008 -4.05489,-7.06039 c -2.23018,-3.88321 -4.11217,-7.06038 -4.1822,-7.06038 -0.07,0 -1.95641,3.1792 -4.19194,7.06488 l -4.06461,7.0649 -4.65892,0.003 -4.65892,0.003 z"
       id="path3147-7" />
  </g>
</svg>
