<?xml version="1.0" encoding="UTF-8" standalone="no"?>
<!-- Created with Inkscape (http://www.inkscape.org/) -->

<svg
   width="210mm"
   height="297mm"
   viewBox="0 0 210 297"
   version="1.1"
   id="svg5"
   inkscape:version="1.1.2 (0a00cf5339, 2022-02-04)"
   sodipodi:docname="Polish.svg"
   xmlns:inkscape="http://www.inkscape.org/namespaces/inkscape"
   xmlns:sodipodi="http://sodipodi.sourceforge.net/DTD/sodipodi-0.dtd"
   xmlns="http://www.w3.org/2000/svg"
   xmlns:svg="http://www.w3.org/2000/svg">
  <sodipodi:namedview
     id="namedview7"
     pagecolor="#ffffff"
     bordercolor="#666666"
     borderopacity="1.0"
     inkscape:pageshadow="2"
     inkscape:pageopacity="0.0"
     inkscape:pagecheckerboard="0"
     inkscape:document-units="mm"
     showgrid="false"
     inkscape:zoom="0.73940797"
     inkscape:cx="31.782184"
     inkscape:cy="561.25984"
     inkscape:window-width="1920"
     inkscape:window-height="1012"
     inkscape:window-x="0"
     inkscape:window-y="0"
     inkscape:window-maximized="1"
     inkscape:current-layer="layer1" />
  <defs
     id="defs2">
    <rect
       x="42.214097"
       y="87.745057"
       width="704.23683"
       height="212.11114"
       id="rect5600" />
  </defs>
  <g
     inkscape:label="Warstwa 1"
     inkscape:groupmode="layer"
     id="layer1">
    <rect
       style="fill:#ffff00;stroke-width:0.458991"
       id="rect14235"
       width="210.79372"
       height="221.46471"
       x="0.13736089"
       y="30.393148" />
    <path
       id="text5598"
       style="font-style:normal;font-weight:normal;font-size:40px;line-height:1.25;font-family:sans-serif;white-space:pre;shape-inside:url(#rect5600);fill:#000000;fill-opacity:1;stroke:none;stroke-width:0.599006"
       d="m 41.613135,50.017322 v 18.204202 h 2.152681 V 50.017322 Z m 6.656929,0 v 2.725951 h 2.152688 v -2.725951 z m 19.058255,0 v 18.204202 h 2.16438 v -7.4057 c 0,-1.279125 0.335384,-2.28917 1.006148,-3.030129 0.670762,-0.740961 1.587212,-1.111441 2.749345,-1.111441 0.967149,0 1.692506,0.308082 2.176086,0.924249 0.483572,0.61617 0.725353,1.544319 0.725353,2.784449 v 7.838572 h 2.152683 v -7.908771 c 0,-1.809498 -0.386077,-3.178325 -1.158234,-4.106473 -0.772157,-0.935949 -1.910891,-1.403923 -3.416216,-1.403923 -0.912533,0 -1.719803,0.194994 -2.42176,0.584967 -0.694166,0.389983 -1.298631,0.978849 -1.813405,1.766602 v -7.136604 z m 38.093101,0 v 2.725951 h 2.15268 v -2.725951 z m 45.18292,0 v 18.204202 h 2.15268 V 50.017322 Z m -54.940171,0.421176 c -1.910898,0 -3.412316,0.444575 -4.504253,1.333726 -1.084145,0.889151 -1.626222,2.105883 -1.626222,3.650201 0,1.333726 0.393883,2.374968 1.181637,3.123726 0.787755,0.748759 2.06299,1.29863 3.825694,1.649612 l 1.439015,0.280784 c 1.201133,0.241784 2.06299,0.604464 2.585563,1.088035 0.530376,0.483579 0.795541,1.154342 0.795541,2.012293 0,0.982744 -0.366567,1.739308 -1.099724,2.269673 -0.733157,0.530375 -1.774405,0.795559 -3.123731,0.795559 -0.889145,0 -1.7939,-0.136494 -2.714251,-0.40948 -0.920352,-0.272984 -1.860198,-0.67856 -2.819537,-1.216734 v 2.433467 c 0.998339,0.366581 1.961587,0.643467 2.889732,0.830655 0.935949,0.187184 1.817301,0.280786 2.644056,0.280786 2.191678,0 3.853004,-0.436773 4.983931,-1.310327 1.13873,-0.873551 1.7081,-2.156583 1.7081,-3.849091 0,-1.419519 -0.42118,-2.550456 -1.26353,-3.392811 -0.83456,-0.850152 -2.133185,-1.442924 -3.895889,-1.7783 l -1.427314,-0.292484 c -1.294729,-0.24179 -2.176081,-0.55767 -2.644056,-0.947648 -0.460181,-0.397783 -0.690261,-0.982748 -0.690261,-1.754905 0,-0.920353 0.347079,-1.63011 1.041236,-2.129283 0.701962,-0.499174 1.696405,-0.74876 2.983342,-0.74876 0.740961,0 1.50921,0.105299 2.30477,0.315883 0.795559,0.210595 1.6418,0.530371 2.538762,0.959346 V 51.32765 C 99.887628,51.031265 99.01798,50.808978 98.167822,50.660786 97.317678,50.512587 96.483119,50.43851 95.664169,50.43851 Z M 13.452784,50.75438 v 17.467144 h 2.36327 V 61.20191 h 2.971636 c 1.957692,0 3.43571,-0.440678 4.434056,-1.322033 1.006145,-0.881349 1.509217,-2.183879 1.509217,-3.907581 0,-1.708113 -0.503072,-3.002838 -1.509217,-3.884188 C 22.2234,51.198958 20.745382,50.75438 18.78769,50.75438 Z m 158.456106,0.643464 v 3.720399 h -1.57944 v 1.673003 h 1.57944 v 7.113208 c 0,1.637913 0.31587,2.768851 0.94764,3.392817 0.63176,0.616163 1.7783,0.924253 3.4396,0.924253 h 2.2112 v -1.801706 h -2.2112 c -0.89694,0 -1.49363,-0.152092 -1.79001,-0.456277 -0.28859,-0.304181 -0.43287,-0.990541 -0.43287,-2.059087 v -7.113208 h 4.43408 v -1.673003 h -4.43408 v -3.720399 z m -156.092836,1.29863 h 2.971636 c 1.099739,0 1.949893,0.284685 2.550459,0.854054 0.600566,0.569367 0.900852,1.376624 0.900852,2.421768 0,1.052941 -0.300286,1.864097 -0.900852,2.433466 -0.600566,0.569367 -1.45072,0.854051 -2.550459,0.854051 h -2.971636 z m 16.215307,2.105883 c -1.879697,0 -3.353815,0.608369 -4.422356,1.825103 -1.060742,1.216734 -1.591111,2.901438 -1.591111,5.054122 -2e-6,2.144881 0.530369,3.82959 1.591111,5.054123 1.068541,1.21673 2.542659,1.825096 4.422356,1.825096 1.871898,0 3.342115,-0.608366 4.410657,-1.825096 1.06854,-1.224533 1.602813,-2.909242 1.602811,-5.054123 0,-2.152684 -0.534271,-3.837388 -1.602811,-5.054122 -1.068542,-1.216734 -2.538759,-1.825103 -4.410657,-1.825103 z m 27.060611,0 c -1.606711,0 -2.84684,0.335383 -3.720397,1.006145 -0.873551,0.670763 -1.310328,1.62231 -1.310328,2.854642 0,1.013945 0.29639,1.813403 0.889153,2.398369 0.592767,0.577166 1.556019,1.006148 2.889742,1.286931 l 0.748761,0.175481 c 1.333724,0.288582 2.195576,0.588866 2.585553,0.900846 0.397782,0.311985 0.596673,0.760456 0.596673,1.345428 0,0.631762 -0.272988,1.12314 -0.818957,1.474116 -0.545972,0.343185 -1.325928,0.514775 -2.339873,0.514775 -0.756558,0 -1.520916,-0.101399 -2.293076,-0.304183 -0.772146,-0.210594 -1.556012,-0.522572 -2.351571,-0.935947 v 2.222873 c 0.842353,0.272984 1.641814,0.475779 2.398371,0.608371 0.764357,0.140387 1.497529,0.210593 2.199475,0.210593 1.684707,0 3.00674,-0.354884 3.966086,-1.064641 0.967146,-0.709763 1.450719,-1.673008 1.450719,-2.889741 0,-1.068539 -0.323681,-1.899193 -0.971045,-2.491966 -0.639566,-0.600563 -1.723703,-1.064639 -3.252422,-1.392224 L 59.021775,60.55845 c -1.154334,-0.257388 -1.922592,-0.526474 -2.30477,-0.807257 -0.382179,-0.288584 -0.573267,-0.682463 -0.573267,-1.181638 0,-0.655163 0.26518,-1.146537 0.795552,-1.474113 0.538172,-0.327587 1.341525,-0.491378 2.410069,-0.491378 0.701958,0 1.380527,0.078 2.035691,0.233989 0.655163,0.155988 1.286923,0.389978 1.895292,0.701958 v -2.03569 c -0.592764,-0.23399 -1.240129,-0.409481 -1.942094,-0.526474 -0.701957,-0.116987 -1.450717,-0.17549 -2.246276,-0.17549 z m 59.280648,0 c -0.94376,0 -1.75881,0.191078 -2.44517,0.573267 -0.68637,0.382179 -1.27523,0.97495 -1.7666,1.778302 v -2.035683 h -2.16438 v 13.103281 h 2.16438 v -7.4057 c 0,-1.271327 0.32367,-2.277473 0.97103,-3.018431 0.64738,-0.74876 1.52094,-1.123139 2.62068,-1.123139 0.92814,0 1.61451,0.304182 2.05907,0.912551 0.44458,0.600564 0.66686,1.532614 0.66686,2.796147 v 7.838572 h 2.16439 v -7.4057 c 0,-1.279125 0.32369,-2.28917 0.97105,-3.030129 0.64735,-0.740961 1.52872,-1.111441 2.64406,-1.111441 0.91254,0 1.59111,0.304182 2.03568,0.912551 0.44457,0.608363 0.66686,1.540412 0.66686,2.796147 v 7.838572 h 2.16438 v -7.908771 c 0,-1.762704 -0.37048,-3.119826 -1.11144,-4.071371 -0.74095,-0.959353 -1.7939,-1.439025 -3.15882,-1.439025 -1.01395,0 -1.89529,0.230091 -2.64406,0.690266 -0.74876,0.460169 -1.39222,1.173831 -1.93039,2.140977 -0.31978,-0.920345 -0.81505,-1.622309 -1.48583,-2.105882 -0.66295,-0.483573 -1.47021,-0.725361 -2.42175,-0.725361 z m 43.48651,0 c -0.70198,0 -1.42343,0.078 -2.16438,0.233989 -0.74097,0.148198 -1.50532,0.37438 -2.29308,0.678562 v 1.98889 c 0.65515,-0.358781 1.33763,-0.627868 2.04737,-0.807253 0.70977,-0.179396 1.43905,-0.269085 2.18781,-0.269085 1.17771,0 2.09027,0.272983 2.73763,0.81895 0.65516,0.538172 0.98274,1.302529 0.98276,2.293076 v 0.210595 h -3.01845 c -1.95769,0 -3.43181,0.374379 -4.42236,1.123137 -0.98274,0.748759 -1.47412,1.8602 -1.47412,3.334319 0,1.263527 0.39389,2.273575 1.18164,3.030132 0.79555,0.748759 1.8641,1.123138 3.20564,1.123138 1.06073,0 1.9577,-0.187183 2.69086,-0.561569 0.73315,-0.38218 1.3454,-0.971046 1.83679,-1.766604 v 1.988897 h 2.15267 v -7.475892 c 0,-1.996694 -0.46798,-3.48641 -1.40391,-4.469154 -0.93596,-0.982749 -2.35159,-1.474122 -4.24687,-1.474122 z m 24.55693,0 c -1.87968,0 -3.35381,0.608369 -4.42236,1.825103 -1.06073,1.216734 -1.5911,2.901438 -1.5911,5.054122 0,2.144881 0.53037,3.82959 1.5911,5.054123 1.06855,1.21673 2.54268,1.825096 4.42236,1.825096 1.8719,0 3.34214,-0.608366 4.41069,-1.825096 1.06851,-1.224533 1.60279,-2.909242 1.60279,-5.054123 0,-2.152684 -0.53428,-3.837388 -1.60279,-5.054122 -1.06855,-1.216734 -2.53879,-1.825103 -4.41069,-1.825103 z m 16.07492,0 c -1.03733,0 -1.91869,0.194994 -2.64404,0.584967 -0.72538,0.382184 -1.31422,0.97105 -1.76661,1.766602 v -2.035683 h -2.16437 v 13.103281 h 2.16437 v -6.902625 c 0,-1.481917 0.3237,-2.616753 0.97104,-3.404515 0.65516,-0.795554 1.59112,-1.19333 2.80784,-1.19333 0.34317,0 0.65518,0.03509 0.93595,0.105298 0.28859,0.06238 0.55377,0.163798 0.79556,0.304184 l -0.011,-2.211181 c -0.21847,-0.03898 -0.4173,-0.06629 -0.59667,-0.08188 -0.1793,-0.02341 -0.34318,-0.03509 -0.4914,-0.03509 z M 48.270064,55.118243 v 13.103281 h 2.152688 V 55.118243 Z m 57.151356,0 v 13.103281 h 2.15268 V 55.118243 Z m 29.77487,0 v 7.932159 c 0,1.801705 0.38998,3.170527 1.16993,4.106474 0.77997,0.935951 1.9226,1.403925 3.42791,1.403925 0.91255,0 1.71201,-0.191078 2.39837,-0.573269 0.69415,-0.389978 1.30252,-0.982742 1.82512,-1.778301 v 2.012293 h 2.15266 V 55.118243 h -2.15266 v 7.42909 c 0,1.27913 -0.3393,2.289171 -1.01786,3.03013 -0.67077,0.740961 -1.58722,1.111441 -2.74935,1.111441 -0.96715,0 -1.69251,-0.308082 -2.17608,-0.924249 -0.48358,-0.623962 -0.72536,-1.556013 -0.72536,-2.79615 V 55.118243 Z M 32.031361,56.62746 c 1.146537,0 2.055189,0.456275 2.725951,1.36882 0.670761,0.904752 1.006144,2.133185 1.006144,3.685302 0,1.559909 -0.335383,2.792246 -1.006144,3.696994 -0.670762,0.904752 -1.579414,1.357129 -2.725951,1.357129 -1.162135,0 -2.078585,-0.448479 -2.749349,-1.345431 -0.662963,-0.904746 -0.994445,-2.140983 -0.994445,-3.708692 0,-1.567715 0.335381,-2.800047 1.006145,-3.697 0.670762,-0.904746 1.583314,-1.357122 2.737649,-1.357122 z m 154.384699,0 c 1.14654,0 2.05518,0.456275 2.72598,1.36882 0.67074,0.904752 1.00613,2.133185 1.00613,3.685302 0,1.559909 -0.33539,2.792246 -1.00613,3.696994 -0.6708,0.904752 -1.57944,1.357129 -2.72598,1.357129 -1.1621,0 -2.07858,-0.448479 -2.74933,-1.345431 -0.66297,-0.904746 -0.99444,-2.140983 -0.99444,-3.708692 0,-1.567715 0.33537,-2.800047 1.00612,-3.697 0.67076,-0.904746 1.58333,-1.357122 2.73765,-1.357122 z m -23.1998,5.007321 h 2.14098 v 0.479673 c -2e-5,1.403923 -0.36269,2.53096 -1.08803,3.381112 -0.71757,0.842355 -1.67302,1.263534 -2.86636,1.263534 -0.86575,0 -1.55212,-0.222276 -2.05908,-0.666862 -0.49918,-0.452376 -0.74876,-1.060745 -0.74876,-1.825103 0,-0.959345 0.33539,-1.637908 1.00615,-2.035683 0.67075,-0.397784 1.87579,-0.596671 3.6151,-0.596671 z" />
    <path
       style="fill:#ececec"
       id="path14406"
       sodipodi:type="arc"
       sodipodi:cx="104.8052"
       sodipodi:cy="162.45215"
       sodipodi:rx="78.447784"
       sodipodi:ry="78.447784"
       sodipodi:start="0"
       sodipodi:end="6.2360265"
       sodipodi:open="true"
       sodipodi:arc-type="arc"
       d="M 183.25298,162.45215 A 78.447784,78.447784 0 0 1 105.73005,240.89448 78.447784,78.447784 0 0 1 26.379221,164.30173 78.447784,78.447784 0 0 1 102.03115,84.053427 78.447784,78.447784 0 0 1 183.16577,158.75402" />
    <rect
       style="fill:#ececec;stroke-width:0.264583"
       id="rect14852"
       width="75.961624"
       height="58.964569"
       x="59.532223"
       y="144.31532" />
    <rect
       style="fill:#2b0000;stroke-width:0.264583"
       id="rect16827"
       width="14.192258"
       height="40.998028"
       x="97.007256"
       y="142.53836"
       ry="5.0628195" />
    <rect
       style="fill:#ff0000;fill-opacity:1;stroke-width:0.181197"
       id="rect14990"
       width="29.284498"
       height="34.9114"
       x="90.000801"
       y="181.95033" />
    <path
       style="fill:#b3b3b3;stroke-width:1.35243"
       d="M 169.86529,804.17176 C 94.54386,714.84904 79.15963,590.11172 130.48205,484.84736 c 29.88629,-61.29801 77.84046,-108.82061 139.3284,-138.0745 64.34555,-30.61345 138.69222,-36.82875 206.78422,-17.28695 113.58604,32.5982 195.96902,127.47669 212.57835,244.82138 3.0198,21.33497 3.01138,58.11849 -0.0183,79.52663 -8.21322,58.03711 -34.46994,115.26879 -71.44229,155.72242 l -6.68401,7.31341 H 531.37057 451.7127 v -64.9168 -64.91681 h -17.47798 -17.47797 l 1.96306,-3.93505 c 1.65044,-3.30838 1.90315,-14.2894 1.58689,-68.95249 l -0.37618,-65.01743 -5.09109,-5.09324 -5.0911,-5.09324 -14.06255,-0.45781 c -16.29801,-0.53057 -21.98436,1.31204 -26.47572,8.57923 -2.6819,4.33939 -2.74249,6.11155 -2.38809,69.84444 0.20002,35.96564 0.8852,66.45712 1.52267,67.75884 1.06833,2.18157 -0.0164,2.36675 -13.86244,2.36675 h -15.02147 v 64.91681 64.9168 l -79.45546,-0.0137 -79.45546,-0.0137 -10.68456,-12.67069 z"
       id="path17088"
       transform="scale(0.26458333)" />
    <path
       style="fill:#aa4400;stroke-width:1.35243"
       d="M 370.75105,908.78633 C 302.83663,902.23295 241.14417,874.29998 192.04554,827.87245 l -11.49569,-10.87028 214.6988,-0.0662 c 118.08434,-0.0364 214.69879,0.42619 214.69879,1.02801 0,1.27909 -18.5234,18.2753 -30.35344,27.85091 -38.21689,30.93398 -90.77806,53.56831 -141.40559,60.89326 -18.18649,2.63127 -51.17148,3.64776 -67.43736,2.07819 z"
       id="path16484"
       transform="scale(0.26458333)" />
  </g>
</svg>
