<?xml version="1.0" encoding="UTF-8" standalone="no"?>
<!-- Created with Inkscape (http://www.inkscape.org/) -->

<svg
   width="210mm"
   height="297mm"
   viewBox="0 0 210 297"
   version="1.1"
   id="svg5"
   inkscape:version="1.3.2 (091e20e, 2023-11-25, custom)"
   sodipodi:docname="rysunek.svg"
   xmlns:inkscape="http://www.inkscape.org/namespaces/inkscape"
   xmlns:sodipodi="http://sodipodi.sourceforge.net/DTD/sodipodi-0.dtd"
   xmlns="http://www.w3.org/2000/svg"
   xmlns:svg="http://www.w3.org/2000/svg">
  <sodipodi:namedview
     id="namedview7"
     pagecolor="#ffffff"
     bordercolor="#666666"
     borderopacity="1.0"
     inkscape:pageshadow="2"
     inkscape:pageopacity="0.0"
     inkscape:pagecheckerboard="0"
     inkscape:document-units="mm"
     showgrid="false"
     showguides="false"
     inkscape:zoom="0.73940797"
     inkscape:cx="362.45214"
     inkscape:cy="560.58362"
     inkscape:window-width="1920"
     inkscape:window-height="1009"
     inkscape:window-x="1912"
     inkscape:window-y="-8"
     inkscape:window-maximized="1"
     inkscape:current-layer="layer1"
     inkscape:showpageshadow="2"
     inkscape:deskcolor="#d1d1d1" />
  <defs
     id="defs2" />
  <g
     inkscape:label="Warstwa 1"
     inkscape:groupmode="layer"
     id="layer1">
    <g
       id="g2391"
       transform="translate(1.7802018,48.617055)">
      <rect
         style="fill:#000000;stroke-width:0.218573"
         id="rect31"
         width="66.676018"
         height="128.56337"
         x="-138.87518"
         y="-12.14576"
         ry="6.0655169"
         transform="matrix(-0.45268704,-0.89166947,0.99999761,-0.00218808,0,0)" />
      <path
         style="fill:none;fill-opacity:1;stroke:#000000;stroke-width:5;stroke-linecap:butt;stroke-linejoin:miter;stroke-miterlimit:4;stroke-dasharray:none;stroke-opacity:1"
         d="m 131.70331,66.906378 44.1778,-0.517845 -21.58287,41.522487"
         id="path146"
         sodipodi:nodetypes="ccc" />
      <rect
         style="fill:#ffffff;fill-opacity:1;stroke:#000000;stroke-width:1.04317;stroke-miterlimit:4;stroke-dasharray:none;stroke-opacity:1"
         id="rect1538"
         width="22.40589"
         height="21.738741"
         x="-2.8182228"
         y="78.879532"
         ry="2.8920758"
         transform="matrix(1,0,0.44716577,0.8944511,0,0)" />
      <rect
         style="fill:#ffffff;fill-opacity:1;stroke:#000000;stroke-width:1.04317;stroke-miterlimit:4;stroke-dasharray:none;stroke-opacity:1"
         id="rect1538-3"
         width="22.40589"
         height="21.738741"
         x="26.941219"
         y="79.834206"
         ry="2.8920758"
         transform="matrix(1,0,0.44716577,0.8944511,0,0)" />
      <rect
         style="fill:#ffffff;fill-opacity:1;stroke:#000000;stroke-width:1.04317;stroke-miterlimit:4;stroke-dasharray:none;stroke-opacity:1"
         id="rect1538-6"
         width="22.40589"
         height="21.738741"
         x="58.648628"
         y="80.571533"
         ry="2.8920758"
         transform="matrix(1,0,0.44716577,0.8944511,0,0)" />
      <rect
         style="fill:#ffffff;fill-opacity:1;stroke:#000000;stroke-width:1.04317;stroke-miterlimit:4;stroke-dasharray:none;stroke-opacity:1"
         id="rect1538-7"
         width="22.40589"
         height="21.738741"
         x="89.090271"
         y="79.866295"
         ry="2.8920758"
         transform="matrix(1,0,0.44716577,0.8944511,0,0)" />
      <rect
         style="fill:#ffffff;fill-opacity:1;stroke:#000000;stroke-width:1.04317;stroke-miterlimit:4;stroke-dasharray:none;stroke-opacity:1"
         id="rect1538-5"
         width="22.40589"
         height="21.738741"
         x="-3.8114908"
         y="108.93581"
         ry="2.8920758"
         transform="matrix(1,0,0.44716577,0.8944511,0,0)" />
      <rect
         style="fill:#ffffff;fill-opacity:1;stroke:#000000;stroke-width:1.04317;stroke-miterlimit:4;stroke-dasharray:none;stroke-opacity:1"
         id="rect1538-35"
         width="22.40589"
         height="21.738741"
         x="25.428253"
         y="109.77187"
         ry="2.8920758"
         transform="matrix(1,0,0.44716577,0.8944511,0,0)" />
      <rect
         style="fill:#ffffff;fill-opacity:1;stroke:#000000;stroke-width:1.04317;stroke-miterlimit:4;stroke-dasharray:none;stroke-opacity:1"
         id="rect1538-62"
         width="22.40589"
         height="21.738741"
         x="56.125385"
         y="110.66085"
         ry="2.8920758"
         transform="matrix(1,0,0.44716577,0.8944511,0,0)"
         inkscape:transform-center-x="2.9877081"
         inkscape:transform-center-y="1.8187065" />
      <rect
         style="fill:#ffffff;fill-opacity:1;stroke:#000000;stroke-width:1.04317;stroke-miterlimit:4;stroke-dasharray:none;stroke-opacity:1"
         id="rect1538-9"
         width="22.40589"
         height="21.738741"
         x="87.253349"
         y="110.15746"
         ry="2.8920758"
         transform="matrix(1,0,0.44716577,0.8944511,0,0)" />
      <path
         style="fill:#ffffff;fill-opacity:1;stroke:#000000;stroke-width:5;stroke-miterlimit:4;stroke-dasharray:none;stroke-opacity:1"
         id="path2172"
         sodipodi:type="arc"
         sodipodi:cx="90.565636"
         sodipodi:cy="135.65323"
         sodipodi:rx="8.4214849"
         sodipodi:ry="8.4214849"
         sodipodi:start="0"
         sodipodi:end="6.2360265"
         sodipodi:open="true"
         sodipodi:arc-type="arc"
         d="m 98.987121,135.65323 a 8.4214849,8.4214849 0 0 1 -8.322201,8.4209 8.4214849,8.4214849 0 0 1 -8.518428,-8.22235 8.4214849,8.4214849 0 0 1 8.121345,-8.61477 8.4214849,8.4214849 0 0 1 8.709921,8.01922" />
      <path
         style="fill:#ffffff;fill-opacity:1;stroke:#000000;stroke-width:5;stroke-miterlimit:4;stroke-dasharray:none;stroke-opacity:1"
         id="path2172-2"
         sodipodi:type="arc"
         sodipodi:cx="163.66058"
         sodipodi:cy="134.68755"
         sodipodi:rx="8.4214849"
         sodipodi:ry="8.4214849"
         sodipodi:start="0"
         sodipodi:end="6.2360265"
         sodipodi:open="true"
         sodipodi:arc-type="arc"
         d="m 172.08207,134.68755 a 8.4214849,8.4214849 0 0 1 -8.3222,8.4209 8.4214849,8.4214849 0 0 1 -8.51843,-8.22235 8.4214849,8.4214849 0 0 1 8.12135,-8.61477 8.4214849,8.4214849 0 0 1 8.70992,8.01922" />
    </g>
  </g>
</svg>
